<svg width="300" height="183" xmlns="http://www.w3.org/2000/svg"><path d="M84 169.3c0-3.3-12-132.6-12.3-133-.2-.2-3.4 18.9-7.1 42.4-8 50.3-7.4 47.4-9.4 47-1.2-.2-2.2-3.3-3.9-11.8l-3.4-17-1.1-5.4-1.4 3.2-1.3 3.2-19.8-.2c-18-.3-19.8-.5-20.1-2-.3-1.7 1-1.8 18.6-1.8h19l1.3-6.5c1.5-7.6 2.2-9 4.2-8.2 1 .4 2.4 5.2 4.3 15.6 1.6 8.3 3.1 15 3.4 15.1.3 0 3.9-20.8 7.9-46.2C70 18 71.7 11.6 73.9 17c.5 1.3 3.3 29.7 6.2 63.1 3 33.4 5.6 60.5 5.9 60.2.3-.3 1.4-10 2.5-21.7 1.7-18.2 2.2-21.2 3.7-21.5 1.2-.2 2.5 1.3 4.6 5.4l3 5.8 5-15.4c4-12.3 5.5-15.5 6.9-15.5 1.4 0 3.1 3.7 8 17 3.5 9.2 6.5 17 6.7 17.2.2.2 1.7-3.5 3.3-8.4l3-8.8 78.1-.3C288.4 94 289 94 289 96s-.8 2-76.7 2.2l-76.6.3-3.7 11c-2.4 7-4.2 11.1-5.2 11.3-1.2.2-3-3.8-7.7-16.5-3.4-9.2-6.6-17.1-7-17.6-.4-.4-2.9 5.8-5.5 13.8-5.3 16.2-6.2 17.2-10.3 10-1.4-2.6-2.4-3.4-2.7-2.5-.2.8-1.2 10-2 20.5-3.4 39.3-3.7 41.5-5.7 41.5-1 0-1.9-.3-2-.8z" fill="#d0d0d0"/><path d="M84.6 169.2c-.4-.6-1.6-13.3-5-50.7-.3-2.8-2-21.2-3.6-41-1.7-19.8-3.5-37.3-3.8-39-.5-2-2.8 10-7.6 40-8 50.6-7.4 47.7-9.4 47.3-1.2-.2-2.2-3.3-3.9-11.8l-3.4-17-1.1-5.4-1.4 3.2-1.3 3.2-19.8-.2c-18-.3-19.8-.5-20.1-2-.3-1.7 1-1.8 18.6-1.8h19l1.3-6.5c1.5-7.5 2.2-9 4-8.3 1 .4 2.5 5.9 4.4 15.7A108 108 0 0 0 55 110c.3 0 3.9-20.8 7.9-46.3 7.2-45.4 8.8-52.3 10.9-46.6.5 1.3 3.3 29.7 6.3 63.1 3 33.4 5.6 60.4 6 60 .4-.4 1.5-10.1 2.5-21.7 1.6-18 2.1-21 3.6-21.3 1.2-.2 2.5 1.3 4.6 5.4l3 5.8 5.2-15.8c4-12.3 5.6-15.6 6.8-15.4 1.1.2 3.7 5.8 7.8 17.1a272 272 0 0 0 6.7 17.3c.3.3 2-3.6 3.7-8.5l3.3-9.1H211c77.2 0 77.9 0 77.9 2s-.8 2-76.7 2.2l-76.6.3-3.7 11c-2.4 7-4.2 11.1-5.2 11.3-1.2.2-3-3.8-7.7-16.5-3.4-9.2-6.6-17.1-7-17.6-.4-.4-2.9 5.8-5.5 13.8-3 9.5-5.2 14.5-6 14.5-.9 0-2.6-1.9-4-4.2-1.6-2.7-2.7-3.7-3-2.8a825 825 0 0 0-3 30.9 543.2 543.2 0 0 1-3.2 30.2 1.6 1.6 0 0 1-2.8.1z" fill="#b9b9b9"/><path d="M84.6 169.2c-.3-.5-3-29.4-6.1-64.3-3-34.9-6-64.7-6.3-66.3-.5-2.2-2.7 9-7.6 40-8 50.8-7.4 47.6-9.4 47.2-1.2-.2-2.2-3.3-3.9-11.8l-3.4-17-1.1-5.4-1.4 3.2-1.3 3.2-19.8-.2c-18-.3-19.8-.5-20.1-2-.3-1.7 1-1.8 18.5-1.8h19l1.7-7.6c1.4-5.9 2.2-7.4 3.4-7.2 1.3.2 2.3 3.8 4.6 15.6C53.1 103 54.7 110 55 110c.3 0 3.9-20.8 8-46.3 7.1-45.3 8.7-52.3 10.8-46.6.5 1.3 3.3 29.7 6.2 63.1 3 33.5 5.7 60.8 6 60.8.4 0 1.4-9.1 2.4-20.3l2.2-22c1-3.1 3-1.8 6.1 4l3 5.6 5.3-15.7c4-12.3 5.6-15.6 6.8-15.4 1.1.2 3.7 5.8 7.8 17.1 3.4 9.3 6.5 17.1 6.8 17.4.3.3.8 0 1-.8l3.2-9.2 2.7-7.7H211c77.2 0 77.9 0 77.9 2s-.8 2-76.7 2.2l-76.6.3-3.7 11c-2.3 7-4.2 11.1-5.2 11.3-1.1.2-3-4-7.7-16.3-3.3-9.2-6.1-17-6.1-17.6 0-.5-.4-.9-1-.9-.5 0-3 6.5-5.5 14.5-3 9.5-5 14.5-6 14.5-.8 0-2.5-1.9-3.9-4.2-1.6-2.7-2.7-3.7-3-2.8a833 833 0 0 0-3 31 567 567 0 0 1-3.2 30.2c-.7 1-2.1 1-2.8 0z" fill="#a3a3a3"/><path d="M84.6 169.2c-.3-.5-3-29.2-6-63.8C73 44 72 34.4 71.3 36.5l-7.4 45c-3.8 24-7.2 44-7.5 44.3-1.9 1.9-3.4-2.3-6.4-17.9-3.3-16.5-3.5-17.2-4.6-13.9l-1.2 3.5H24.4c-18.1 0-19.9-.2-20.2-1.8-.3-1.6 1-1.7 18.5-1.7h19l1.7-7.6c1.4-5.8 2.2-7.4 3.4-7.2 1.3.2 2.3 3.8 4.6 15.3 2.9 14.8 3.2 16.2 4 15.4.2-.2 3.6-21.1 7.6-46.4a812 812 0 0 1 8.3-47.3c.7-.9 1.3-1 2-.3.6.6 3.6 29.3 6.7 63.8 3.2 34.5 6 62.1 6.3 61.3.3-.8 1.3-10 2.2-20.5 1.9-22 2.1-23.5 3.8-23.5.7 0 2.7 2.6 4.4 5.7 2 3.7 3.4 5.2 3.7 4.3 8.6-26.8 9.9-30 11.4-29.8 1 .2 3.3 4.8 6.4 13.3l6.4 17.3c.9 2.4 2 4 2.4 3.5.4-.4 2-4.5 3.5-9l2.7-8.3H211c77.2 0 77.9 0 77.9 2s-.8 2-76.7 2.2l-76.6.3-3.7 11c-2.3 6.9-4.2 11.1-5.2 11.3-1 .2-3.1-4.2-7.8-17-3.5-9.5-6.6-17.6-7-18a66 66 0 0 0-5.4 14.2c-3 10-5.2 15-6 15-.9 0-2.6-1.9-4-4.2-1.6-2.8-2.7-3.7-3-2.8a801 801 0 0 0-3 31 579.6 579.6 0 0 1-3.2 30.2c-.7 1-2.1 1-2.8 0z" fill="#8c8c8c"/><path d="M84.7 169.2c-.3-.4-3-29.1-6.2-63.8-5.4-61.4-6.4-71-7.1-68.9-.2.5-3.5 20.8-7.4 45-3.8 24-7.2 44-7.5 44.3-1.8 1.8-3.3-1.9-5.4-13a905 905 0 0 0-3.3-17.3l-1.1-5-1.2 3.5-1.2 3.5-19.6.3C5.5 98 5 98 5 96s.6-2 18.3-2h18.3l1.8-7.6c1.4-5.8 2.2-7.4 3.4-7.2 1.3.2 2.3 3.8 4.6 15.3 2.9 14.9 3.2 16.2 4 15.4.2-.2 3.7-21.1 7.7-46.4 4.1-26.3 7.8-46.6 8.5-47.4 1.1-1.2 1.4-1 2.2 1 .5 1.3 3.3 30 6.3 63.6 3 33.7 5.6 61.3 6 61.3.3 0 1.3-9.1 2.3-20.3 1-11 1.9-21.2 2.2-22.5.7-3.7 2.7-2.5 6.1 3.5 2 3.7 3.4 5.2 3.7 4.3 8.6-26.8 9.9-30 11.4-29.8 1 .2 3.3 4.8 6.4 13.3l6.4 17.3c.9 2.4 2 4 2.4 3.5.4-.4 2-4.5 3.5-9l2.7-8.3H211c77.2 0 77.9 0 77.9 2s-.8 2-76.7 2.2l-76.6.3-3.7 11c-2 6-4 11-4.7 11.2-1.7.6-2.8-1.6-8.8-18.2a245 245 0 0 0-6.5-16.8c-.3-.4-2.8 6-5.4 14.3-3.2 10-5.2 15-6.2 15-.7 0-2.3-1.8-3.4-4s-2.4-4-2.8-4c-.4 0-1.8 12-3.1 26.8a1436 1436 0 0 1-3 31.1c-.6 4.2-2.3 6.3-3.4 4.3z" fill="#767676"/><path d="M84.6 169.2c-.3-.4-3-29.1-6-63.8-5.5-61.5-6.4-70-7-69.3-.4.3-14.6 87.8-14.6 89.4 0 .3-.7.5-1.5.5-1.7 0-2.6-3.1-5.5-19l-2.7-14c-.6-2.4-.7-2.3-1.8 1l-1.2 3.5-19.6.3C5.5 98 5 98 5 96s.6-2 18.3-2h18.3l1.8-7.6c1.4-5.8 2.2-7.4 3.4-7.2 1.3.2 2.3 3.8 4.6 15.3 2.9 15 3.2 16.2 4 15.4.2-.2 3.7-21.1 7.7-46.4 4.1-26 7.8-46.6 8.5-47.4 1.1-1.2 1.4-1 2.2 1 .5 1.3 3.3 30 6.3 63.7 3 33.6 5.6 61.2 6 61.2.3 0 1.3-9.1 2.3-20.3 1-11 1.9-21.2 2.2-22.5.7-3.7 2.7-2.5 6.1 3.5 2 3.7 3.4 5.2 3.7 4.3 8.5-26.6 9.9-30 11.4-29.8 1 .2 3.7 6.1 7.7 17.1a105 105 0 0 0 7 16.8c.6 0 2.2-3.8 3.8-8.5l2.9-8.6H211c77.2 0 77.9 0 77.9 2s-.8 2-76.6 2.2l-76.7.3-3.7 10.7c-2 6-4 11.1-4.4 11.5-1.4 1.4-3.4-2.7-9-18.2-3.2-8.8-6.2-16.3-6.5-16.8-.4-.4-2.9 6-5.5 14.3-3.2 10-5.2 15-6.2 15-.7 0-2.3-1.8-3.4-4s-2.4-4-2.8-4c-.4 0-2 13.8-3.5 30.6-1.5 16.9-3 31-3.3 31.5-.7 1.1-2.1 1.1-2.8.1z" fill="#606060"/><path d="M84.6 169.2c-.2-.4-3-29-6-63.7-5.5-62-6.4-70-7.1-69.3-.2.2-3.5 20.1-7.4 44.2a654 654 0 0 1-8 45c-1.7 1.6-2.2.2-4.7-12.1-1.3-6.5-3-14.3-3.5-17.3l-1.2-5.5-1.2 3.5-1.2 3.5-19.6.3C5.5 98 5 98 5 96s.6-2 18.4-2h18.4l1.7-7.6c1.3-6 2-7.4 3.3-7.2 1.3.3 2.3 3.7 4.7 16A99.4 99.4 0 0 0 55 111c.3 0 3.9-20.8 8-46.3 4-25.4 7.7-47 8.2-48 .7-1.4 1.3-1.6 2-.9 1 1 11.7 113.7 11.8 124.2.1 9.8 1.8.7 3.4-18.5 2-22.9 2.2-24.5 3.9-24.5.7 0 2.7 2.6 4.4 5.7 2 3.7 3.4 5.2 3.7 4.3l5.1-15.8c3.6-11.1 5-14.2 6.2-14 1.1.2 3.7 6 7.8 17.1 3.4 9.3 6.5 16.9 7 17 .5.1 2-3.2 3.4-7.3 1.4-4.2 3-8.1 3.4-8.8.6-1 18.2-1.2 78.3-1.2 76.7 0 77.4 0 77.4 2s-.8 2-76.6 2.2l-76.6.3-4 11a131 131 0 0 1-4.3 11.4c-1.3 1.2-3.5-3.4-9-18.4a190 190 0 0 0-6.4-16.7c-.4-.4-2.9 6-5.6 14.2-3 8.9-5.4 15-6.2 15-.7 0-2.2-1.8-3.3-4-1.1-2.2-2.4-4-2.8-4-.4 0-2 13.8-3.6 30.7-1.5 17-3 31.1-3.2 31.5-.7 1-2.1 1-2.8 0z" fill="#494949"/><path d="M84.5 168.8c-.3-.7-3-29.2-6-63.3-5.5-62.1-6.5-71.9-7.1-70-.2.5-3.5 20.8-7.3 45a749.5 749.5 0 0 1-8 44.7c-1.5 1.6-2.8-1.6-5-13.2l-3.3-16.5-1.1-5-1.1 3.2c-.6 1.8-1.4 3.3-1.9 3.3H24c-16.2 0-19-.2-19-1.5S7.7 94 23.4 94h18.4l1.7-7.6c1.3-6 2-7.5 3.3-7.2 1.3.3 2.3 3.6 4.6 16C53.1 104 54.7 111 55 111c.3 0 4-21 8-46.6C67.2 38.7 71 17 71.8 16c1-1.4 1.3-1.3 2 .9.6 1.4 1.3 6.6 1.7 11.5.6 8.4 4.6 53.7 8 91.2 1 8.9 1.6 18.1 1.6 20.5.1 9.8 1.8.3 3.4-18.7 1-11 1.9-21 2.2-22.2.7-3.7 2.8-2.6 6 3.2 1.5 3 3.2 5.1 3.5 4.7.4-.4 2.8-7.4 5.4-15.5 3.6-11.5 5-14.8 6.2-14.5 1 .2 3.7 6.1 7.8 17.3a120 120 0 0 0 7 17c.5 0 2-3.4 3.4-7.5 1.4-4.2 3-8.1 3.4-8.8.6-1 18.2-1.2 78.3-1.2 68.1 0 77.4.2 77.4 1.5s-9.1 1.5-75.9 1.5c-59.5 0-76 .3-76.8 1.3-.5.6-2.7 6-4.7 12a50 50 0 0 1-4.6 10.7c-1.5 0-2.7-2.7-8.4-18.5-3.2-8.8-6.1-16.3-6.5-16.7-.4-.4-2.9 6-5.6 14.2-3 8.9-5.4 15-6.2 15-.7 0-2.2-1.8-3.3-4-1.1-2.2-2.4-4-2.8-4-.4 0-2 13.8-3.6 30.8a651 651 0 0 1-3.3 31.4c-.7 1.2-2.3 1-2.8-.4z" fill="#333"/></svg>