<svg width="467" height="423" xmlns="http://www.w3.org/2000/svg"><path d="M222.5 407.4c-22.5-30-53.8-62-101.5-103.9-47.7-41.9-68.2-63-83.6-86A158.7 158.7 0 0 1 10 138.3 117.8 117.8 0 0 1 97.7 11.9c10-2.6 34-3.7 45-2A118.1 118.1 0 0 1 230 73.7c0 3 2.1 1 5-4.6 4-8 13.5-20.3 21.6-28.2C278.6 20 306 9 336.3 9c14.7 0 26.2 1.8 38.3 6 37 13 64.6 42.7 75 80.5 2.6 9.3 2.8 11.4 2.8 30 0 22.7-1 30.5-7.2 49-9 27.4-26.2 52.5-56.2 82.5-7.4 7.4-28 26.3-45.5 42-51.8 46-81.1 76.6-103.8 108.2l-8.5 11.8zm22.7-23.6c21.5-29 42.8-50.7 95.3-97.4 42-37.4 59.4-56.3 73.7-80.1a142 142 0 0 0 16-38.3c2.6-10 3.1-13.8 3.6-29a94 94 0 0 0-4.6-39c-7.3-21.9-22-41.5-40.6-54.2A129.7 129.7 0 0 0 357 31a110.1 110.1 0 0 0-72.5 6.4 110.1 110.1 0 0 0-48 45.8c-1.3 2.6-2.8 4.7-3.3 4.7s-1.4-1.4-2.2-3.2a104.3 104.3 0 0 0-19.3-26.4A103.6 103.6 0 0 0 127 28.1c-24 2.3-44.6 11.8-62.8 29.3a105 105 0 0 0-31.8 84.1c2 35.1 14.1 64.3 39.4 94.5 10.9 13 31 32.4 60.7 58.5 42.8 37.6 72.2 67.6 92.4 94.4 8.5 11.3 8.5 11.3 10 9a584 584 0 0 1 10.3-14.1z" fill="#d0d0d0"/><path d="M224.4 409.7c-22-29.5-57.2-65.7-104.4-107.2A1440.6 1440.6 0 0 1 75.7 262C37.5 224.7 19.4 194.4 12 156a202 202 0 0 1-2-42.4 116.8 116.8 0 0 1 90.5-102.3c12.2-2.8 39.8-2.5 51.8.5a116.6 116.6 0 0 1 76.6 59.9c.7 1.8 1.7 3.3 2.1 3.3.5 0 2.6-3.3 4.9-7.4A117 117 0 0 1 317 10.4c12.5-2.2 36-1.4 47 1.5a118.3 118.3 0 0 1 86.7 88.6c2.6 11.1 2.3 42.8-.6 56.2a175 175 0 0 1-35.8 72.4c-13.7 17.2-32.5 35.6-74.4 72.8-47.2 42-79.2 75.5-100.8 106l-8 11zM245 384c19-25.5 48.1-55.4 89.4-92 41.2-36.6 61.3-57.4 75-78a137.8 137.8 0 0 0 24.6-70.4c2.7-33.4-7.8-62.6-31-85.6a103.5 103.5 0 0 0-95.5-28.4A104.8 104.8 0 0 0 238 80l-4.8 8.1-3.2-5.7a105.8 105.8 0 0 0-106.6-53.9 104.2 104.2 0 0 0-79.7 56.4A102 102 0 0 0 32.3 140 140 140 0 0 0 47 199.3c14 28 34 50.2 87 96.8 42.9 37.7 70.4 65.9 91.4 93.7 8 10.6 8 10.6 9.5 8.2l10.2-13.9z" fill="#b9b9b9"/><path d="M223.2 408.2c-24.8-33.4-49.7-58.7-107.7-109.8-52.7-46.3-73.6-69.7-88.9-99.2a187.3 187.3 0 0 1-14-40.4 190 190 0 0 1-2.6-44.9A116.7 116.7 0 0 1 97 12.2c8.6-2.3 11.2-2.6 28.5-2.6s19.8.3 28.7 2.6a118.8 118.8 0 0 1 73 56.5c1.8 3.5 3.6 6.3 4 6.3.3 0 2.2-3 4.2-6.6a118 118 0 0 1 44.7-44.8 111 111 0 0 1 62.3-14.3 115.2 115.2 0 0 1 110.3 121.2c-.8 25.7-5.1 42.6-16.3 64.6-16 31.2-34.8 52-96 106.3-46.6 41.5-79.4 75.8-101.2 106.4l-8 11.1zm16.3-16.3c18.8-26.8 52-61.7 94.5-99.5 68.4-60.7 89.1-88.5 98.1-131.7a142 142 0 0 0-.4-52.9c-9.2-35-33.2-62-65.7-73.9a89 89 0 0 0-37.5-6.2 89 89 0 0 0-46 10.7 105.1 105.1 0 0 0-45.7 43.4l-3.5 6.2-5.4-9.2a122.6 122.6 0 0 0-35.6-36.1A103.9 103.9 0 0 0 91.5 38a106 106 0 0 0-56.6 69.3 100 100 0 0 0-2.7 22.3c-1.7 50.3 18 89.8 68 136.2 5.8 5.4 21.8 19.7 35.4 31.8 43 37.9 68.8 64.4 88.2 90.6 4.8 6.4 9 11.7 9.4 11.7.3 0 3.2-3.5 6.3-8z" fill="#a3a3a3"/><path d="M223.3 408.3c-25-33.6-50.7-59.8-107.3-109.4-40.7-35.6-64.1-60-78.6-81.5a171 171 0 0 1-24.8-58.7 187.8 187.8 0 0 1-2.5-45.3 113.1 113.1 0 0 1 35.6-72.5A114.9 114.9 0 0 1 179 22.1a115.3 115.3 0 0 1 47.9 46.1 30 30 0 0 0 4.3 6.8c.3 0 2.3-3 4.3-6.7A116.6 116.6 0 0 1 384 19a121 121 0 0 1 57.4 54.9A121.3 121.3 0 0 1 453 126c0 37.6-12.4 70-39.8 104.4-11.3 14-34 36.3-68.2 66.9-57.2 51-86.2 81.5-108.4 113.9l-5.3 7.7zm16.2-16.4c19.2-27.3 51.6-61.3 98.5-103.1 53.9-48 75.3-73.5 87-103.5 19.2-48.9 10.4-97-23.6-129.2a105.5 105.5 0 0 0-164 24.4c-3.8 7-4.9 7.7-6 4.4a107.8 107.8 0 0 0-68.3-54.6 78.3 78.3 0 0 0-25.6-2.6c-14.1 0-17.2.3-26 2.7-19.8 5.2-40.9 18-53.2 32.3A104.2 104.2 0 0 0 32 134c0 41.6 13.6 73.7 46.7 110.5a665.4 665.4 0 0 0 53.8 50.5c48.7 43 73.7 68.7 94 96.8a55 55 0 0 0 6.7 8.2 51 51 0 0 0 6.3-8z" fill="#8c8c8c"/><path d="M224.9 410.4c-23.2-32.2-52-61.6-108.9-111.5-60.1-52.7-84.2-81.8-97-117.8a156.1 156.1 0 0 1-6-84.6A109 109 0 0 1 44 43a109 109 0 0 1 80.5-33.4c10.5 0 19.3.4 23 1.2a131.4 131.4 0 0 1 44 18.5c13 8.9 29 26.6 36 40a22 22 0 0 0 3.7 5.7c.3 0 2.2-3 4.2-6.6a118.9 118.9 0 0 1 55.5-50 120 120 0 0 1 82-3.8 117.3 117.3 0 0 1 76.8 82.1c2.5 9 2.7 11.4 2.7 29.3 0 20.6-.8 26.7-6 45a180.5 180.5 0 0 1-19 39.7C411 236 394 253.7 341 301c-53.4 47.6-82.3 78.2-105 111l-4.8 7zm31.5-40.4a852 852 0 0 1 80.6-80c45.6-40.8 63-59.5 77.3-83.2C441 162 441.8 109.9 416 72.7A131 131 0 0 0 388 45a106 106 0 0 0-151 36.3 21.5 21.5 0 0 1-3.8 5.7c-.4 0-2-2.5-3.6-5.5a105.6 105.6 0 0 0-164.3-26 114 114 0 0 0-30 49c-2.6 8.5-2.7 10-2.8 30 0 16.3.4 22.8 1.7 29 5.4 25 16.2 46.7 34.5 69.5 10.4 13 32 34 63.8 62.2 35 30.8 51.6 46.6 66.7 63.5a476 476 0 0 1 30.8 37.8l3.2 4.6 6.6-9.3c3.6-5.1 11.1-15 16.6-21.8Z" fill="#767676"/><path d="M224.7 410a551.4 551.4 0 0 0-61.9-69c-8-7.6-27.9-25.4-44-39.6-32-28.2-59.6-55.2-69.8-68.2-25.1-32.2-36.4-60-39-96-2.5-36.3 7.6-66.3 30.5-91a116 116 0 0 1 187 23c1.6 3.2 3.3 5.8 3.7 5.8.4 0 1.7-2 3-4.2a116.3 116.3 0 0 1 209.7 9c7 16.6 9.6 32.2 8.8 52.1-1.5 35.6-13.2 65.2-38.1 96.6-14.7 18.4-31 34.6-73.6 72.5-53 47.3-80.6 76.3-103.7 109.3-3 4.2-5.8 7.7-6.1 7.7-.4 0-3.3-3.6-6.5-8zm13.5-15.8c7-10.4 23-30.3 36-44.2 14.8-16 26.8-27.6 61.3-58.4 43.7-39.1 61-57.2 74.8-78.1a143.5 143.5 0 0 0 24.7-79.7 105.6 105.6 0 0 0-147.7-98c-21 9-39 25.1-50.3 45-3.4 6-5 7.5-5 4.9a105.6 105.6 0 0 0-190.6 2.7c-7.9 16.7-8.9 22-8.9 46.1 0 16.5.4 22.8 1.8 29.5 5.7 26.7 17.9 50 39 74.5 11.6 13.6 25 26.4 53.2 51.4 54.3 47.9 77 71 99.9 101.9l7 9.2c.2 0 2.3-3 4.8-6.8z" fill="#606060"/><path d="M226 411.9c-21.1-30-52.8-63.1-99.5-103.9-72-62.9-94.6-89.7-108.4-129.3A157 157 0 0 1 13 96.6a116.3 116.3 0 0 1 216-24.7l2.2 4.4 3.2-6A116.9 116.9 0 0 1 352.6 10c48.4 6.7 87 42.5 98 91.2 2.4 10.2 2.4 38.8 0 51.7a173.4 173.4 0 0 1-15.2 44c-15.5 29.3-36.5 52.5-93.4 103-51.8 46-85.2 81.1-105 110.6a38 38 0 0 1-5.8 7.4c-.5 0-2.7-2.7-5.1-6.1zm15-21.4c19.9-28 47.4-57 93-97.5 31.5-28 54-50 64.3-63a155.8 155.8 0 0 0 33.9-67c3.2-14.8 3.3-42.4.1-55a107 107 0 0 0-69.8-75.7A106.8 106.8 0 0 0 265.8 48a123.3 123.3 0 0 0-27.4 30.4l-5.2 8.6-4.5-7.8a107.8 107.8 0 0 0-68.2-49.8 133.6 133.6 0 0 0-47.6.3 106.5 106.5 0 0 0-81 92.4c-1 11.8.3 33.1 3 45 5.1 22.7 16 44.2 33.5 65.9 9.6 12 35 36.8 62.4 60.9 51.3 45.2 72 66.4 95.5 98 3.8 5 7.2 8.9 7.6 8.4l7-9.8z" fill="#494949"/><path d="M223.4 409a485.2 485.2 0 0 0-46.3-53.2 1037.5 1037.5 0 0 0-64-59c-41.2-36.1-61.4-57.3-76.3-80a152.6 152.6 0 0 1-23.4-55.3c-9.8-47.5 0-86.4 29.2-116.2 23.6-24 49.3-34.8 83-34.8 10.7 0 17.4.5 23.5 1.8a117 117 0 0 1 79 58.9l3.2 5.7 4.5-8a116.5 116.5 0 0 1 168-37.8c26 18 44.4 48.7 48.4 81a157 157 0 0 1-15.9 84.1c-15.1 29.5-37.2 54-93.7 104.1-51.6 45.9-84 79.9-105.5 110.9a44.2 44.2 0 0 1-5.9 7.6c-.3 0-3.9-4.4-7.8-9.8zm16.9-16.4c21.6-30.7 45.3-55.4 97.3-101.7 64-57 86.2-86.5 95-127a194 194 0 0 0 1.5-46.8 106.1 106.1 0 0 0-196.1-37l-4.8 7.9-2.2-4.3a115 115 0 0 0-34.7-38.2c-9-6-22-11.8-32.7-14.7a124 124 0 0 0-45-1.4 104.3 104.3 0 0 0-54.4 27.9 106.4 106.4 0 0 0-30.8 55 167 167 0 0 0 .5 51.1c9.6 45.3 29.5 72.1 98.7 133 43.4 38 73 68.5 91.8 94.2 4.5 6.1 8.4 11.2 8.8 11.2a70 70 0 0 0 7-9.2z" fill="#333"/></svg>